<?xml version="1.0" encoding="UTF-8" standalone="no"?><!DOCTYPE svg PUBLIC "-//W3C//DTD SVG 1.1//EN" "http://www.w3.org/Graphics/SVG/1.1/DTD/svg11.dtd"><svg width="100%" height="100%" viewBox="0 0 120 120" version="1.1" xmlns="http://www.w3.org/2000/svg" xmlns:xlink="http://www.w3.org/1999/xlink" xml:space="preserve" xmlns:serif="http://www.serif.com/" style="fill-rule:evenodd;clip-rule:evenodd;stroke-linejoin:round;stroke-miterlimit:1.41421;"><rect x="-4.362" y="-4.101" width="128.723" height="128.203" style="fill:none;"/><ellipse cx="59.44" cy="85.108" rx="27.609" ry="4.7" style="fill-opacity:0.180392;"/><path d="M61.335,35.774c-4.457,-4.72 -9.781,-6.891 -14.8,-6.036c-10.447,1.779 -16.761,15.946 -14.092,31.615c2.669,15.669 13.317,26.946 23.763,25.167c5.02,-0.855 9.325,-4.666 11.968,-10.595l-6.839,-40.151Z" style="fill:#b2432e;"/><path d="M50.711,76.184c2.644,5.928 6.949,9.739 11.969,10.593c10.447,1.777 21.093,-9.501 23.759,-25.171c2.666,-15.67 -3.651,-29.835 -14.097,-31.613c-5.02,-0.854 -10.344,1.318 -14.799,6.039l-6.832,40.152Z" style="fill:#b2432e;"/><path d="M56.088,35.138c0.039,1.045 1.572,1.893 3.422,1.893c1.85,0 3.32,-0.848 3.282,-1.893c-0.771,0.314 -1.994,0.568 -3.331,0.568c-1.337,0 -2.579,-0.254 -3.373,-0.568Z" style="fill:#711e0f;"/><path d="M58.024,25.924c-0.16,0 -0.312,0.063 -0.425,0.176c-0.112,0.112 -0.175,0.265 -0.175,0.424c0,0.015 0,0.031 0,0.046c0,0.249 0.153,0.472 0.386,0.561c0.435,0.151 0.744,0.567 0.744,1.055l1.772,0c0,-0.488 0.309,-0.904 0.742,-1.062c0.23,-0.088 0.382,-0.308 0.382,-0.554c0.007,-0.015 0.007,-0.031 0.007,-0.046c0,-0.159 -0.063,-0.312 -0.175,-0.424c-0.113,-0.113 -0.266,-0.176 -0.425,-0.176c-0.762,0 -2.071,0 -2.833,0Z" style="fill:#964c24;"/><path d="M60.334,27.055l-1.788,0c0,0 0,7.373 0,9.084c0,0.093 0.037,0.182 0.103,0.248c0.066,0.066 0.156,0.103 0.249,0.103c0.31,0 0.761,0 1.075,0c0.096,0 0.188,-0.038 0.256,-0.106c0.067,-0.067 0.105,-0.159 0.105,-0.255c0,-1.729 0,-9.074 0,-9.074Z" style="fill:#964c24;"/><path d="M49.02,23.337c1.033,1.249 2.7,2.532 4.72,3.188c2.02,0.656 4.122,0.598 5.692,0.195c-0.331,-1.933 -1.93,-3.934 -4.234,-4.683c-2.304,-0.749 -4.774,-0.069 -6.178,1.3Z" style="fill:#009f36;"/><path d="M73.245,13.598c-2.349,-0.165 -6.024,1.38 -9.089,4.288c-3.064,2.908 -4.799,6.497 -4.758,8.852c2.37,1.341 6.729,0.12 10.172,-3.148c3.443,-3.267 4.891,-7.556 3.675,-9.992Z" style="fill:#009f36;"/><path d="M71.582,15.639c-1.16,0.462 -3.392,2.061 -5.627,4.182c-2.234,2.12 -3.948,4.265 -4.47,5.4c1.103,-1.366 2.801,-3.237 4.76,-5.096c1.958,-1.859 3.916,-3.456 5.337,-4.486Z" style="fill:#2eba5d;"/><path d="M51.308,23.488c0.765,0.128 1.85,0.383 2.982,0.75c1.132,0.368 2.16,0.8 2.854,1.147c-0.137,-0.407 -1.274,-1.072 -2.725,-1.543c-1.451,-0.471 -2.761,-0.603 -3.111,-0.354Z" style="fill:#2eba5d;"/><path d="M43.203,32.815c0.132,-0.047 0.203,-0.191 0.159,-0.325c-0.044,-0.134 -0.186,-0.208 -0.321,-0.167c-1.843,0.704 -4.333,3.362 -6.327,6.959c-1.212,2.184 -2.032,4.34 -2.406,6.13c-0.023,0.213 0.127,0.405 0.339,0.435c0.212,0.03 0.409,-0.113 0.447,-0.324c0.431,-1.723 1.252,-3.757 2.392,-5.813c1.822,-3.285 4.026,-5.846 5.717,-6.895Z" style="fill:#e7e8e9;fill-opacity:0.647059;"/></svg>
