<?xml version="1.0" encoding="UTF-8" standalone="no"?><!DOCTYPE svg PUBLIC "-//W3C//DTD SVG 1.1//EN" "http://www.w3.org/Graphics/SVG/1.1/DTD/svg11.dtd"><svg width="100%" height="100%" viewBox="0 0 120 120" version="1.1" xmlns="http://www.w3.org/2000/svg" xmlns:xlink="http://www.w3.org/1999/xlink" xml:space="preserve" xmlns:serif="http://www.serif.com/" style="fill-rule:evenodd;clip-rule:evenodd;stroke-linejoin:round;stroke-miterlimit:1.41421;"><path d="M23.963,88.457c0,0 13.244,-4.52 17.05,-8.327c2.408,-2.407 2.408,-6.316 0,-8.723c-2.407,-2.407 -6.316,-2.407 -8.723,0c-3.807,3.807 -8.327,17.05 -8.327,17.05Z" style="fill:#f5a75f;"/><clipPath id="_clip1"><path d="M23.963,88.457c0,0 13.244,-4.52 17.05,-8.327c2.408,-2.407 2.408,-6.316 0,-8.723c-2.407,-2.407 -6.316,-2.407 -8.723,0c-3.807,3.807 -8.327,17.05 -8.327,17.05Z"/></clipPath><g clip-path="url(#_clip1)"><path d="M28.593,83.827c0,0 9.996,-2.57 12.689,-5.263c2.049,-2.049 2.049,-5.376 0,-7.426c-2.049,-2.049 -5.377,-2.049 -7.426,0c-2.693,2.693 -5.263,12.689 -5.263,12.689Z" style="fill:#f5d05f;"/></g><g><path d="M57.134,41.848c0.527,-0.169 1.102,0.046 1.39,0.518c0.288,0.473 0.215,1.082 -0.177,1.473c-7.155,7.156 -22.81,22.811 -22.81,22.811c0,0 -5.617,-5.618 -9.625,-9.626c-0.84,-0.84 -1.182,-2.056 -0.901,-3.21c0.28,-1.154 1.141,-2.079 2.272,-2.44c7.843,-2.502 22.377,-7.141 29.851,-9.526Z" style="fill:#c12929;"/><path d="M73.491,55.96c0.169,-0.528 -0.046,-1.102 -0.519,-1.39c-0.472,-0.288 -1.081,-0.215 -1.472,0.176c-7.156,7.156 -22.811,22.811 -22.811,22.811c0,0 5.618,5.617 9.626,9.625c0.84,0.84 2.056,1.181 3.21,0.901c1.154,-0.28 2.079,-1.141 2.44,-2.273c2.502,-7.842 7.141,-22.377 9.526,-29.85Z" style="fill:#c12929;"/><path d="M84.089,28.331c2.429,5.996 -0.302,16.431 -7.15,27.325c-9.394,10.555 -21.516,19.734 -31.744,24.038c-8.235,0.527 -12.996,-4.234 -12.469,-12.468c4.304,-10.229 13.484,-22.351 24.038,-31.745c10.894,-6.848 21.329,-9.579 27.325,-7.15Z" style="fill:#fff;"/><path d="M37.634,74.687c-0.027,-2.221 1.686,-6.021 4.6,-10.203c4.166,-4.286 9.024,-8.348 13.046,-10.906c2.602,-0.428 3.891,0.861 3.463,3.463c-2.558,4.021 -6.62,8.88 -10.906,13.046c-4.183,2.914 -7.982,4.627 -10.203,4.6Z" style="fill:#c12929;"/><path d="M61.823,47.497c1.656,0 3,1.345 3,3c0,1.656 -1.344,3 -3,3c-1.655,0 -3,-1.344 -3,-3c0,-1.655 1.345,-3 3,-3Zm0,1.5c0.828,0 1.5,0.672 1.5,1.5c0,0.828 -0.672,1.5 -1.5,1.5c-0.827,0 -1.5,-0.672 -1.5,-1.5c0,-0.828 0.673,-1.5 1.5,-1.5Z" style="fill:#c12929;"/><path d="M67.823,41.497c1.656,0 3,1.345 3,3c0,1.656 -1.344,3 -3,3c-1.655,0 -3,-1.344 -3,-3c0,-1.655 1.345,-3 3,-3Zm0,1.5c0.828,0 1.5,0.672 1.5,1.5c0,0.828 -0.672,1.5 -1.5,1.5c-0.827,0 -1.5,-0.672 -1.5,-1.5c0,-0.828 0.673,-1.5 1.5,-1.5Z" style="fill:#c12929;"/><path d="M73.823,35.497c1.656,0 3,1.345 3,3c0,1.656 -1.344,3 -3,3c-1.655,0 -3,-1.344 -3,-3c0,-1.655 1.345,-3 3,-3Zm0,1.5c0.828,0 1.5,0.672 1.5,1.5c0,0.828 -0.672,1.5 -1.5,1.5c-0.827,0 -1.5,-0.672 -1.5,-1.5c0,-0.828 0.673,-1.5 1.5,-1.5Z" style="fill:#c12929;"/><ellipse cx="61.842" cy="50.497" rx="1.509" ry="1.56" style="fill:#405580;"/><ellipse cx="67.823" cy="44.497" rx="1.509" ry="1.56" style="fill:#405580;"/><ellipse cx="73.823" cy="38.497" rx="1.509" ry="1.56" style="fill:#405580;"/></g></svg>