<?xml version="1.0" encoding="UTF-8" standalone="no"?><!DOCTYPE svg PUBLIC "-//W3C//DTD SVG 1.1//EN" "http://www.w3.org/Graphics/SVG/1.1/DTD/svg11.dtd"><svg width="100%" height="100%" viewBox="0 0 120 120" version="1.1" xmlns="http://www.w3.org/2000/svg" xmlns:xlink="http://www.w3.org/1999/xlink" xml:space="preserve" xmlns:serif="http://www.serif.com/" style="fill-rule:evenodd;clip-rule:evenodd;stroke-linejoin:round;stroke-miterlimit:1.41421;"><rect x="-3.14" y="-1.839" width="125.309" height="123.392" style="fill:none;"/><path d="M59.515,18.234l6.252,19.242l16.368,-11.892l-6.252,19.242l20.232,0l-16.368,11.892l16.368,11.892l-20.232,0l6.252,19.242l-16.368,-11.892l-6.252,19.242l-6.252,-19.242l-16.369,11.892l6.252,-19.242l-20.232,0l16.368,-11.892l-16.368,-11.892l20.232,0l-6.252,-19.242l16.369,11.892l6.252,-19.242Z" style="fill:#fa6296;"/><g><path d="M57.987,36.762c5.15,-1.673 16.977,-3.138 22.126,1.951c5.15,5.089 5.15,15.267 0,25.446c-2.845,6.024 -9.217,12.049 -15.574,16.822c-2.975,2.242 -7.074,2.242 -10.048,0c-6.358,-4.773 -12.73,-10.798 -15.575,-16.822c-5.15,-10.179 -5.15,-20.357 0,-25.446c5.15,-5.089 13.922,-3.624 19.071,-1.951Z" style="fill:#d73337;"/><path d="M66.441,39.012c-0.316,-0.184 -0.441,-0.558 -0.28,-0.835c0.162,-0.277 0.549,-0.352 0.865,-0.168c0.315,0.184 0.44,0.558 0.279,0.835c-0.162,0.277 -0.549,0.352 -0.864,0.168Z" style="fill:#f5ca5d;"/><path d="M74.13,47.972c-0.156,-0.332 -0.049,-0.714 0.239,-0.852c0.288,-0.139 0.648,0.018 0.804,0.35c0.156,0.332 0.048,0.713 -0.239,0.852c-0.288,0.138 -0.649,-0.018 -0.804,-0.35Z" style="fill:#f5ca5d;"/><path d="M60.027,49.028c-0.396,-0.156 -0.607,-0.562 -0.471,-0.906c0.135,-0.344 0.567,-0.496 0.962,-0.34c0.396,0.157 0.607,0.562 0.472,0.906c-0.136,0.344 -0.567,0.496 -0.963,0.34Z" style="fill:#f5ca5d;"/><path d="M42.102,49.649c-0.396,-0.156 -0.607,-0.562 -0.471,-0.906c0.136,-0.343 0.567,-0.496 0.963,-0.339c0.395,0.156 0.606,0.562 0.471,0.905c-0.136,0.344 -0.567,0.496 -0.963,0.34Z" style="fill:#f5ca5d;"/><path d="M37.999,46.157c-0.396,-0.156 -0.607,-0.562 -0.471,-0.906c0.136,-0.343 0.567,-0.496 0.963,-0.339c0.395,0.156 0.607,0.562 0.471,0.905c-0.136,0.344 -0.567,0.496 -0.963,0.34Z" style="fill:#f5ca5d;"/><path d="M57.74,76.935c-0.396,-0.156 -0.607,-0.562 -0.471,-0.905c0.136,-0.344 0.567,-0.496 0.963,-0.34c0.395,0.156 0.606,0.562 0.471,0.906c-0.136,0.343 -0.567,0.496 -0.963,0.339Z" style="fill:#f5ca5d;"/><path d="M44.115,45.649c-0.268,0.33 -0.719,0.409 -1.006,0.176c-0.287,-0.232 -0.302,-0.69 -0.034,-1.02c0.268,-0.33 0.718,-0.409 1.005,-0.177c0.287,0.233 0.303,0.69 0.035,1.021Z" style="fill:#f5ca5d;"/><path d="M49.388,54.86c-0.395,-0.156 -0.607,-0.562 -0.471,-0.905c0.136,-0.344 0.567,-0.496 0.963,-0.34c0.396,0.156 0.607,0.562 0.471,0.906c-0.136,0.343 -0.567,0.495 -0.963,0.339Z" style="fill:#f5ca5d;"/><path d="M47.027,41.412c-0.396,-0.157 -0.607,-0.562 -0.471,-0.906c0.135,-0.344 0.567,-0.496 0.962,-0.34c0.396,0.156 0.607,0.562 0.472,0.906c-0.136,0.344 -0.568,0.496 -0.963,0.34Z" style="fill:#f5ca5d;"/><path d="M40.754,44.996c7.161,-1.04 13.654,-1.478 17.309,-4.773c1.649,-1.486 1.781,-4.032 0.294,-5.681c-1.486,-1.649 -4.032,-1.781 -5.681,-0.294c-3.655,3.295 -4.076,7.465 -11.922,10.748Z" style="fill:#4a952d;"/><path d="M75.325,47.768c-7.477,-4.055 -7.476,-8.246 -10.781,-11.892c-1.491,-1.645 -4.037,-1.77 -5.682,-0.279c-1.645,1.491 -1.77,4.037 -0.279,5.682c3.306,3.646 9.722,4.735 16.742,6.489Z" style="fill:#4a952d;"/><path d="M77.619,32.611c-7.404,2.258 -10.243,-0.078 -14.772,-0.112c-1.825,-0.014 -3.318,1.456 -3.332,3.281c-0.014,1.826 1.456,3.318 3.281,3.332c4.529,0.035 9.065,-3.238 14.823,-6.501Z" style="fill:#4a952d;"/><path d="M43.241,30.45c3.896,4.502 7.888,9.016 11.786,9.469c2.206,0.256 4.204,-1.326 4.46,-3.531c0.257,-2.205 -1.325,-4.204 -3.531,-4.46c-3.898,-0.453 -6.682,2.058 -12.715,-1.478Z" style="fill:#4a952d;"/><path d="M55.993,28.41c2.454,1.223 4.816,1.13 7.044,-0.04c0,0 -1.363,2.478 -1.736,3.616c-0.337,1.03 -0.5,3.212 -0.5,3.212l-2.308,0c0,0 -0.253,-2.055 -0.608,-3.019c-0.417,-1.131 -1.892,-3.769 -1.892,-3.769Z" style="fill:#4a952d;"/><ellipse cx="43.679" cy="53.355" rx="0.777" ry="0.705" style="fill:#f5ca5d;"/><ellipse cx="39.87" cy="62.637" rx="0.877" ry="0.774" style="fill:#f5ca5d;"/><ellipse cx="48.876" cy="66.543" rx="0.771" ry="0.669" style="fill:#f5ca5d;"/><ellipse cx="53.636" cy="78.641" rx="0.771" ry="0.669" style="fill:#f5ca5d;"/><ellipse cx="55.439" cy="67.486" rx="0.771" ry="0.669" style="fill:#f5ca5d;"/><ellipse cx="39.336" cy="58.468" rx="0.533" ry="0.582" style="fill:#f5ca5d;"/><ellipse cx="49.647" cy="73.705" rx="0.771" ry="0.669" style="fill:#f5ca5d;"/><ellipse cx="59.515" cy="64.215" rx="0.771" ry="0.669" style="fill:#f5ca5d;"/><ellipse cx="54.407" cy="74.135" rx="0.771" ry="0.669" style="fill:#f5ca5d;"/><ellipse cx="55.439" cy="51.757" rx="0.771" ry="0.669" style="fill:#f5ca5d;"/><ellipse cx="59.515" cy="80.654" rx="0.771" ry="0.669" style="fill:#f5ca5d;"/><ellipse cx="58.308" cy="69.613" rx="0.771" ry="0.669" style="fill:#f5ca5d;"/><path d="M39.92,52.896c0.352,0.24 0.468,0.682 0.26,0.987c-0.209,0.305 -0.663,0.358 -1.014,0.119c-0.352,-0.24 -0.468,-0.683 -0.26,-0.988c0.209,-0.305 0.663,-0.358 1.014,-0.118Z" style="fill:#f5ca5d;"/><path d="M59.043,56.889c0.351,0.239 0.467,0.682 0.259,0.987c-0.208,0.305 -0.663,0.358 -1.014,0.119c-0.351,-0.24 -0.468,-0.683 -0.259,-0.988c0.208,-0.305 0.662,-0.358 1.014,-0.118Z" style="fill:#f5ca5d;"/><path d="M52.143,68.242c0.351,0.24 0.467,0.682 0.259,0.987c-0.208,0.305 -0.663,0.358 -1.014,0.119c-0.351,-0.24 -0.468,-0.683 -0.259,-0.988c0.208,-0.305 0.662,-0.358 1.014,-0.118Z" style="fill:#f5ca5d;"/><path d="M52.503,48.29c0.351,0.24 0.467,0.682 0.259,0.988c-0.208,0.305 -0.663,0.358 -1.014,0.118c-0.351,-0.24 -0.468,-0.682 -0.259,-0.987c0.208,-0.305 0.662,-0.359 1.014,-0.119Z" style="fill:#f5ca5d;"/><path d="M81.08,46.465c0.351,0.24 0.468,0.682 0.259,0.987c-0.208,0.305 -0.662,0.359 -1.014,0.119c-0.351,-0.24 -0.467,-0.682 -0.259,-0.988c0.208,-0.305 0.663,-0.358 1.014,-0.118Z" style="fill:#f5ca5d;"/><path d="M53.623,62.63c0.351,0.24 0.467,0.682 0.259,0.987c-0.208,0.306 -0.662,0.359 -1.014,0.119c-0.351,-0.24 -0.467,-0.682 -0.259,-0.988c0.208,-0.305 0.662,-0.358 1.014,-0.118Z" style="fill:#f5ca5d;"/><path d="M44.352,57.65c0.308,0.41 0.326,0.918 0.039,1.134c-0.286,0.216 -0.77,0.058 -1.078,-0.352c-0.309,-0.411 -0.327,-0.919 -0.04,-1.135c0.287,-0.215 0.77,-0.057 1.079,0.353Z" style="fill:#f5ca5d;"/><ellipse cx="48.982" cy="58.655" rx="0.877" ry="0.774" style="fill:#f5ca5d;"/><path d="M46.479,69.066c0.274,0.326 0.267,0.783 -0.015,1.021c-0.283,0.238 -0.734,0.168 -1.009,-0.158c-0.274,-0.325 -0.267,-0.782 0.016,-1.021c0.282,-0.238 0.734,-0.167 1.008,0.158Z" style="fill:#f5ca5d;"/><ellipse cx="56.871" cy="42.918" rx="0.771" ry="0.669" style="fill:#f5ca5d;"/><path d="M37.956,50.199c-0.268,0.33 -0.719,0.409 -1.006,0.176c-0.287,-0.232 -0.302,-0.689 -0.034,-1.02c0.268,-0.33 0.719,-0.409 1.005,-0.177c0.287,0.233 0.303,0.69 0.035,1.021Z" style="fill:#f5ca5d;"/><path d="M44.133,39.768c-0.268,0.33 -0.719,0.41 -1.005,0.177c-0.287,-0.233 -0.303,-0.69 -0.035,-1.02c0.268,-0.331 0.719,-0.41 1.006,-0.177c0.287,0.233 0.302,0.69 0.034,1.02Z" style="fill:#f5ca5d;"/><path d="M47.546,49.987c-0.268,0.33 -0.718,0.409 -1.005,0.176c-0.287,-0.232 -0.302,-0.69 -0.034,-1.02c0.268,-0.33 0.718,-0.41 1.005,-0.177c0.287,0.233 0.302,0.69 0.034,1.021Z" style="fill:#f5ca5d;"/><path d="M71.613,68.483c-0.318,-0.186 -0.439,-0.573 -0.269,-0.865c0.17,-0.291 0.567,-0.377 0.885,-0.191c0.318,0.185 0.439,0.573 0.269,0.864c-0.17,0.292 -0.567,0.377 -0.885,0.192Z" style="fill:#f5ca5d;"/><path d="M78.891,59.9c-0.359,-0.21 -0.499,-0.64 -0.312,-0.96c0.187,-0.32 0.63,-0.41 0.989,-0.201c0.359,0.21 0.498,0.64 0.312,0.96c-0.187,0.32 -0.63,0.41 -0.989,0.201Z" style="fill:#f5ca5d;"/><path d="M70.666,58.526c-0.315,-0.184 -0.441,-0.559 -0.279,-0.835c0.161,-0.277 0.549,-0.352 0.864,-0.168c0.316,0.184 0.441,0.558 0.279,0.835c-0.161,0.276 -0.548,0.352 -0.864,0.168Z" style="fill:#f5ca5d;"/><path d="M72.169,39.614c-0.315,-0.184 -0.441,-0.558 -0.279,-0.835c0.161,-0.277 0.549,-0.352 0.864,-0.168c0.316,0.184 0.441,0.558 0.279,0.835c-0.161,0.277 -0.548,0.352 -0.864,0.168Z" style="fill:#f5ca5d;"/><path d="M79.028,43.352c-0.316,-0.184 -0.441,-0.558 -0.28,-0.835c0.162,-0.277 0.549,-0.352 0.865,-0.168c0.315,0.184 0.44,0.558 0.279,0.835c-0.161,0.277 -0.549,0.352 -0.864,0.168Z" style="fill:#f5ca5d;"/><path d="M76.248,63.344c-0.219,-0.127 -0.282,-0.426 -0.142,-0.667c0.14,-0.24 0.432,-0.332 0.65,-0.204c0.218,0.127 0.282,0.426 0.142,0.666c-0.141,0.241 -0.432,0.332 -0.65,0.205Z" style="fill:#f5ca5d;"/><path d="M74.642,43.703c-0.315,-0.184 -0.44,-0.559 -0.279,-0.835c0.162,-0.277 0.549,-0.352 0.865,-0.168c0.315,0.184 0.44,0.558 0.279,0.835c-0.162,0.276 -0.549,0.352 -0.865,0.168Z" style="fill:#f5ca5d;"/><path d="M65.088,48.617c-0.316,-0.184 -0.441,-0.559 -0.28,-0.835c0.162,-0.277 0.549,-0.353 0.865,-0.168c0.315,0.184 0.44,0.558 0.279,0.835c-0.162,0.276 -0.549,0.352 -0.864,0.168Z" style="fill:#f5ca5d;"/><path d="M69.829,43.1c-0.315,-0.184 -0.441,-0.558 -0.279,-0.835c0.161,-0.276 0.549,-0.352 0.864,-0.168c0.316,0.184 0.441,0.559 0.279,0.835c-0.161,0.277 -0.548,0.352 -0.864,0.168Z" style="fill:#f5ca5d;"/><path d="M62.666,59.714c-0.315,-0.184 -0.44,-0.558 -0.279,-0.835c0.162,-0.277 0.549,-0.352 0.864,-0.168c0.316,0.184 0.441,0.558 0.28,0.835c-0.162,0.277 -0.549,0.352 -0.865,0.168Z" style="fill:#f5ca5d;"/><path d="M76.037,53.069c-0.315,-0.184 -0.44,-0.558 -0.279,-0.835c0.162,-0.276 0.549,-0.352 0.864,-0.168c0.316,0.184 0.441,0.559 0.28,0.835c-0.162,0.277 -0.549,0.352 -0.865,0.168Z" style="fill:#f5ca5d;"/><path d="M67.894,74.525c-0.156,-0.332 -0.048,-0.714 0.239,-0.852c0.288,-0.139 0.649,0.018 0.804,0.35c0.156,0.331 0.049,0.713 -0.239,0.852c-0.288,0.138 -0.648,-0.019 -0.804,-0.35Z" style="fill:#f5ca5d;"/><path d="M62.528,53.808c-0.156,-0.331 -0.048,-0.713 0.239,-0.852c0.288,-0.138 0.649,0.019 0.804,0.35c0.156,0.332 0.049,0.714 -0.239,0.852c-0.288,0.139 -0.648,-0.018 -0.804,-0.35Z" style="fill:#f5ca5d;"/><path d="M63.622,63.08c-0.156,-0.332 -0.049,-0.713 0.239,-0.852c0.288,-0.139 0.648,0.018 0.804,0.35c0.156,0.332 0.049,0.713 -0.239,0.852c-0.288,0.138 -0.648,-0.018 -0.804,-0.35Z" style="fill:#f5ca5d;"/><path d="M67.894,70.688c-0.156,-0.332 -0.048,-0.714 0.239,-0.852c0.288,-0.139 0.649,0.018 0.804,0.35c0.156,0.331 0.049,0.713 -0.239,0.852c-0.288,0.138 -0.648,-0.019 -0.804,-0.35Z" style="fill:#f5ca5d;"/><path d="M69.018,52.656c-0.156,-0.332 -0.049,-0.713 0.239,-0.852c0.288,-0.138 0.648,0.018 0.804,0.35c0.156,0.332 0.048,0.713 -0.239,0.852c-0.288,0.138 -0.648,-0.018 -0.804,-0.35Z" style="fill:#f5ca5d;"/><path d="M73.759,59.595c-0.05,-0.441 0.159,-0.829 0.466,-0.867c0.307,-0.037 0.596,0.29 0.646,0.731c0.05,0.441 -0.159,0.83 -0.466,0.867c-0.307,0.038 -0.597,-0.29 -0.646,-0.731Z" style="fill:#f5ca5d;"/><path d="M66.751,57.309c-0.359,-0.21 -0.499,-0.64 -0.312,-0.96c0.187,-0.32 0.63,-0.41 0.989,-0.2c0.359,0.209 0.499,0.639 0.312,0.959c-0.187,0.32 -0.63,0.41 -0.989,0.201Z" style="fill:#f5ca5d;"/><path d="M81.077,52.607c-0.062,-0.362 0.143,-0.702 0.457,-0.758c0.314,-0.056 0.618,0.193 0.679,0.555c0.061,0.362 -0.144,0.702 -0.457,0.758c-0.314,0.056 -0.618,-0.192 -0.679,-0.555Z" style="fill:#f5ca5d;"/><path d="M63.652,69.685c-0.315,-0.184 -0.44,-0.559 -0.279,-0.835c0.162,-0.277 0.549,-0.352 0.864,-0.168c0.316,0.184 0.441,0.558 0.28,0.835c-0.162,0.276 -0.549,0.352 -0.865,0.168Z" style="fill:#f5ca5d;"/><path d="M75.247,67.945c0.343,-0.131 0.712,0.004 0.823,0.303c0.111,0.298 -0.077,0.647 -0.421,0.779c-0.343,0.132 -0.712,-0.004 -0.823,-0.303c-0.111,-0.298 0.078,-0.647 0.421,-0.779Z" style="fill:#f5ca5d;"/><path d="M63.101,75.879c0.343,-0.131 0.712,0.004 0.823,0.303c0.112,0.298 -0.077,0.648 -0.42,0.779c-0.343,0.132 -0.712,-0.004 -0.823,-0.303c-0.111,-0.298 0.077,-0.647 0.42,-0.779Z" style="fill:#f5ca5d;"/><path d="M69.461,63.385c0.344,-0.132 0.712,0.004 0.823,0.302c0.112,0.299 -0.077,0.648 -0.42,0.779c-0.343,0.132 -0.712,-0.004 -0.823,-0.302c-0.111,-0.299 0.077,-0.648 0.42,-0.779Z" style="fill:#f5ca5d;"/><path d="M39.772,42.126c-0.268,0.33 -0.718,0.409 -1.005,0.177c-0.287,-0.233 -0.303,-0.69 -0.035,-1.021c0.268,-0.33 0.719,-0.409 1.006,-0.176c0.287,0.232 0.302,0.689 0.034,1.02Z" style="fill:#f5ca5d;"/><path d="M54.477,57.57c-0.268,0.33 -0.719,0.409 -1.006,0.177c-0.287,-0.233 -0.302,-0.69 -0.034,-1.021c0.268,-0.33 0.718,-0.409 1.005,-0.177c0.287,0.233 0.303,0.69 0.035,1.021Z" style="fill:#f5ca5d;"/><path d="M47.198,63.101c-0.268,0.33 -0.718,0.41 -1.005,0.177c-0.287,-0.233 -0.302,-0.69 -0.034,-1.021c0.268,-0.33 0.718,-0.409 1.005,-0.176c0.287,0.232 0.302,0.69 0.034,1.02Z" style="fill:#f5ca5d;"/><path d="M57.674,62.499c-0.408,0.122 -0.825,-0.067 -0.931,-0.421c-0.105,-0.354 0.14,-0.74 0.547,-0.862c0.408,-0.122 0.825,0.067 0.93,0.421c0.106,0.354 -0.139,0.74 -0.546,0.862Z" style="fill:#f5ca5d;"/><path d="M43.887,66.515c-0.407,0.121 -0.824,-0.067 -0.93,-0.421c-0.106,-0.354 0.139,-0.74 0.547,-0.862c0.407,-0.122 0.824,0.066 0.93,0.42c0.106,0.354 -0.139,0.741 -0.547,0.863Z" style="fill:#f5ca5d;"/><path d="M50.814,45.935c-0.408,0.122 -0.825,-0.067 -0.93,-0.421c-0.106,-0.354 0.139,-0.74 0.546,-0.862c0.408,-0.121 0.825,0.067 0.931,0.421c0.105,0.354 -0.14,0.74 -0.547,0.862Z" style="fill:#f5ca5d;"/></g></svg>