<?xml version="1.0" encoding="UTF-8" standalone="no"?><!DOCTYPE svg PUBLIC "-//W3C//DTD SVG 1.1//EN" "http://www.w3.org/Graphics/SVG/1.1/DTD/svg11.dtd"><svg width="100%" height="100%" viewBox="0 0 120 120" version="1.1" xmlns="http://www.w3.org/2000/svg" xmlns:xlink="http://www.w3.org/1999/xlink" xml:space="preserve" xmlns:serif="http://www.serif.com/" style="fill-rule:evenodd;clip-rule:evenodd;stroke-linejoin:round;stroke-miterlimit:1.41421;"><rect x="-3.301" y="-3.236" width="127.019" height="126.018" style="fill:none;"/><ellipse cx="44.723" cy="65.543" rx="16.801" ry="14.623" style="fill:#a8000c;"/><ellipse cx="78.658" cy="77.409" rx="16.801" ry="14.4" style="fill:#a8000c;"/><path d="M74.467,66.117c0.092,0.744 1.436,1.193 3.002,1.001c1.565,-0.191 2.762,-0.951 2.671,-1.696c-0.635,0.305 -1.655,0.614 -2.787,0.752c-1.131,0.139 -2.196,0.085 -2.886,-0.057Z" style="fill:#74181e;"/><path d="M43.263,54.133c-0.247,0.708 0.762,1.704 2.251,2.223c1.489,0.519 2.899,0.366 3.145,-0.342c-0.703,-0.007 -1.756,-0.181 -2.832,-0.556c-1.077,-0.375 -2.009,-0.893 -2.564,-1.325Z" style="fill:#74181e;"/><path d="M63.486,35.244c0.362,-0.253 0.494,-0.726 0.316,-1.13c-0.178,-0.404 -0.616,-0.626 -1.047,-0.53c-2.978,0.693 -6.929,4.864 -11.049,10.306c-3.096,4.088 -7.209,11.587 -7.209,11.587c0.77,0.585 1.626,0.902 2.628,0.767c0,0 4.09,-6.888 6.677,-10.462c3.177,-4.387 6.473,-8.119 9.684,-10.538Z" style="fill:#7c4f33;"/><path d="M75.945,66.162c0.559,0.594 2.01,0.452 3.057,-0.215c0,0 -3.552,-11.373 -7.622,-19.267c-2.497,-4.843 -4.989,-9.085 -7.28,-12.097c-0.454,-0.547 -1.262,-0.632 -1.82,-0.191c-0.558,0.441 -0.663,1.246 -0.237,1.815c2.193,2.93 4.509,6.407 6.7,10.657c3.277,6.356 7.202,19.298 7.202,19.298Z" style="fill:#7c4f33;"/><path d="M45.088,19.83c-0.947,2.907 1.556,7.681 6.182,11.095c4.626,3.414 9.926,4.398 12.424,2.635c-0.402,-2.7 -3.104,-6.646 -7.222,-9.684c-4.118,-3.039 -8.685,-4.458 -11.384,-4.046Z" style="fill:#4e8b4b;"/><path d="M88.189,15.812c-3.743,-2.976 -11.332,-2.153 -17.767,2.426c-6.435,4.58 -9.7,11.481 -8.114,15.992c3.932,0.961 10.43,-0.611 16.158,-4.687c5.728,-4.076 9.342,-9.701 9.723,-13.731Z" style="fill:#4e8b4b;"/><path d="M82.525,18.395c-0.943,-1.434 -5.892,0.152 -11.045,3.54c-5.153,3.387 -8.572,7.301 -7.629,8.735c1.896,-1.862 5.1,-4.468 8.824,-6.917c3.725,-2.448 7.388,-4.356 9.85,-5.358Z" style="fill:#1a7e2c;"/><path d="M49.544,23.679c1.46,0.518 3.579,1.594 5.667,3.062c2.088,1.468 3.818,3.097 4.8,4.296c0.798,-1.135 -0.899,-3.705 -3.788,-5.735c-2.889,-2.031 -5.881,-2.758 -6.679,-1.623Z" style="fill:#1a7e2c;"/></svg>