<?xml version="1.0" encoding="utf-8"?>
<!-- Generator: Adobe Illustrator 21.1.0, SVG Export Plug-In . SVG Version: 6.00 Build 0)  -->
<svg version="1.1" id="Layer_1" xmlns="http://www.w3.org/2000/svg" xmlns:xlink="http://www.w3.org/1999/xlink" x="0px" y="0px"
	 viewBox="0 0 100 30" enable-background="new 0 0 100 30" xml:space="preserve">
<g>
	<path fill="#F7931E" d="M18,15H4c-1.65,0-3-1.35-3-3v0c0-1.65,1.35-3,3-3h14c1.65,0,3,1.35,3,3v0C21,13.65,19.65,15,18,15z"/>
</g>
<g>
	<path fill="#F7931E" d="M45,15H31c-1.65,0-3-1.35-3-3v0c0-1.65,1.35-3,3-3h14c1.65,0,3,1.35,3,3v0C48,13.65,46.65,15,45,15z"/>
</g>
<g>
	<path fill="#F7931E" d="M96,15H82c-1.65,0-3-1.35-3-3v0c0-1.65,1.35-3,3-3h14c1.65,0,3,1.35,3,3v0C99,13.65,97.65,15,96,15z"/>
</g>
<g>
	<path fill="#F7931E" d="M71,15H57c-1.65,0-3-1.35-3-3v0c0-1.65,1.35-3,3-3h14c1.65,0,3,1.35,3,3v0C74,13.65,72.65,15,71,15z"/>
</g>
<text transform="matrix(1 0 0 1 6.0415 12.625)" font-family="'MicrosoftSansSerif'" font-size="2px">Ben Taylor</text>
<text transform="matrix(1 0 0 1 33.0415 12.625)" font-family="'MicrosoftSansSerif'" font-size="2px">Ben Taylor</text>
<text transform="matrix(1.0427 0 0 1 59.041 12.646)" font-family="'MicrosoftSansSerif'" font-size="1.9181px">Ben Taylor</text>
<text transform="matrix(1 0 0 1 84.0415 12.625)" font-family="'MicrosoftSansSerif'" font-size="2px">Mo Momeni</text>
</svg>
