<?xml version="1.0" encoding="UTF-8" standalone="no"?><!DOCTYPE svg PUBLIC "-//W3C//DTD SVG 1.1//EN" "http://www.w3.org/Graphics/SVG/1.1/DTD/svg11.dtd"><svg width="100%" height="100%" viewBox="0 0 385 280" version="1.1" xmlns="http://www.w3.org/2000/svg" xmlns:xlink="http://www.w3.org/1999/xlink" xml:space="preserve" xmlns:serif="http://www.serif.com/" style="fill-rule:evenodd;clip-rule:evenodd;stroke-linejoin:round;stroke-miterlimit:1.41421;"><path d="M105,280l0,-35l70,0l0,35l-70,0Zm105,0l70,0l0,-35l-70,0l0,35Zm175,-140l0,105l-35,0l0,-70l-35,0l0,70l-35,0l0,-35l-175,0l0,35l-35,0l0,-70l-35,0l0,70l-35,0l0,-70l0,-35l35,0l0,-35l35,0l0,-35l35,0l0,-35l35,0l0,35l105,0l0,-35l35,0l0,35l35,0l0,35l35,0l0,35l35,0Zm-245,-35l-35,0l0,35l35,0l0,-35Zm140,0l-35,0l0,35l35,0l0,-35Zm35,-105l-35,0l0,35l35,0l0,-35Zm-245,0l0,35l35,0l0,-35l-35,0Z" style="fill:#FFF8DC;;fill-rule:nonzero;"/></svg>
