<?xml version="1.0" encoding="UTF-8" standalone="no"?><!DOCTYPE svg PUBLIC "-//W3C//DTD SVG 1.1//EN" "http://www.w3.org/Graphics/SVG/1.1/DTD/svg11.dtd"><svg width="100%" height="100%" viewBox="0 0 120 120" version="1.1" xmlns="http://www.w3.org/2000/svg" xmlns:xlink="http://www.w3.org/1999/xlink" xml:space="preserve" xmlns:serif="http://www.serif.com/" style="fill-rule:evenodd;clip-rule:evenodd;stroke-linejoin:round;stroke-miterlimit:1.41421;"><rect x="-3.657" y="-3.369" width="127.694" height="129.135" style="fill:none;"/><ellipse cx="48.79" cy="74.127" rx="18.238" ry="6.91" style="fill:#190f00;fill-opacity:0.317647;"/><circle cx="59.81" cy="54.131" r="24" style="fill:#eab258;"/><path d="M56.124,31.276c0.335,1.322 2.038,2.398 4.06,2.403c2.022,0.005 3.73,-1.063 4.072,-2.383c-1.017,0.437 -2.49,0.791 -4.068,0.787c-1.578,-0.003 -3.049,-0.364 -4.064,-0.807Z" style="fill:#bd7d16;fill-opacity:0.858824;"/><path d="M67.901,21.893c-2.31,-1.463 -5.858,-0.01 -7.916,3.243c-2.059,3.252 -1.854,7.08 0.457,8.543c1.51,-1.108 3.329,-2.944 4.776,-5.231c1.447,-2.286 2.329,-4.717 2.683,-6.555Z" style="fill:#389f14;"/><path d="M66.007,23.422c-0.403,-0.267 -1.951,1.349 -3.455,3.608c-1.504,2.259 -2.398,4.311 -1.996,4.579c0.516,-1.036 1.42,-2.606 2.507,-4.239c1.087,-1.633 2.187,-3.073 2.944,-3.948Z" style="fill:#3fe86c;"/></svg>