<?xml version="1.0" encoding="utf-8"?>
<!-- Generator: Adobe Illustrator 21.1.0, SVG Export Plug-In . SVG Version: 6.00 Build 0)  -->
<svg version="1.1" id="Layer_1" xmlns="http://www.w3.org/2000/svg" xmlns:xlink="http://www.w3.org/1999/xlink" x="0px" y="0px"
	 viewBox="0 0 100 30" style="enable-background:new 0 0 100 30;" xml:space="preserve">
<style type="text/css">
	.st0{fill:#F7931E;}
	.st1{font-family:'MicrosoftSansSerif';}
	.st2{font-size:2px;}
	.st3{font-size:1.9181px;}
</style>
<g>
	<path class="st0" d="M18,15H4c-1.7,0-3-1.4-3-3l0,0c0-1.6,1.3-3,3-3h14c1.6,0,3,1.4,3,3l0,0C21,13.6,19.6,15,18,15z"/>
</g>
<g>
	<path class="st0" d="M45,15H31c-1.6,0-3-1.4-3-3l0,0c0-1.6,1.4-3,3-3h14c1.7,0,3,1.4,3,3l0,0C48,13.6,46.7,15,45,15z"/>
</g>
<g>
	<path class="st0" d="M96,15H82c-1.7,0-3-1.4-3-3l0,0c0-1.6,1.3-3,3-3h14c1.7,0,3,1.4,3,3l0,0C99,13.6,97.7,15,96,15z"/>
</g>
<g>
	<path class="st0" d="M71,15H57c-1.7,0-3-1.4-3-3l0,0c0-1.6,1.3-3,3-3h14c1.7,0,3,1.4,3,3l0,0C74,13.6,72.7,15,71,15z"/>
</g>
<text transform="matrix(1 0 0 1 6.0415 12.625)" class="st1 st2"> Max Avit</text>
<text transform="matrix(1 0 0 1 33.0415 12.625)" class="st1 st2">Ben Taylor</text>
<text transform="matrix(1.0427 0 0 1 58.3743 12.646)" class="st1 st3">Ismaila Khan</text>
<text transform="matrix(1 0 0 1 84.0415 12.625)" class="st1 st2">Mo Momeni</text>
</svg>
